HIERARCHY
ROOT Hips
{
  OFFSET 68.7968 96.8644 2.6068
  CHANNELS 6 Xposition Yposition Zposition Zrotation Xrotation Yrotation
  JOINT spine
  {
    OFFSET 0 7.96568 0.458067
    CHANNELS 3 Zrotation Xrotation Yrotation
    JOINT spine1
    {
      OFFSET 0 10.2431 0
      CHANNELS 3 Zrotation Xrotation Yrotation
      JOINT spine2
      {
        OFFSET 0 9.81475 0
        CHANNELS 3 Zrotation Xrotation Yrotation
        JOINT Neck
        {
          OFFSET 0 25.1986 1.20138
          CHANNELS 3 Zrotation Xrotation Yrotation
          JOINT Head
          {
            OFFSET 0 7.61315 0
            CHANNELS 3 Zrotation Xrotation Yrotation
            End Site
            {
              OFFSET 0 18.4281 -6.07733
            }
          }
        }
        JOINT RightShoulder
        {
          OFFSET -4.1327 10.5992 -0.575451
          CHANNELS 3 Zrotation Xrotation Yrotation
          JOINT RightArm
          {
            OFFSET 0 13.9018 0
            CHANNELS 3 Zrotation Xrotation Yrotation
            JOINT RightArmRoll
            {
              OFFSET 0 7.01789 0
              CHANNELS 3 Zrotation Xrotation Yrotation
              JOINT RightForeArm
              {
                OFFSET 0 20.4406 0
                CHANNELS 3 Zrotation Xrotation Yrotation
                JOINT RightForeArmRoll
                {
                  OFFSET 0 7.87515 0
                  CHANNELS 3 Zrotation Xrotation Yrotation
                  JOINT RightHand
                  {
                    OFFSET 0 15.8037 0
                    CHANNELS 3 Zrotation Xrotation Yrotation
                    End Site
                    {
                      OFFSET 0 0 0
                    }
                  }
                }
              }
            }
          }
        }
        JOINT LeftShoulder
        {
          OFFSET 4.1327 10.5992 -0.575451
          CHANNELS 3 Zrotation Xrotation Yrotation
          JOINT LeftArm
          {
            OFFSET 0 13.9018 0
            CHANNELS 3 Zrotation Xrotation Yrotation
            JOINT LeftArmRoll
            {
              OFFSET 0 7.01789 0
              CHANNELS 3 Zrotation Xrotation Yrotation
              JOINT LeftForeArm
              {
                OFFSET 0 20.4406 0
                CHANNELS 3 Zrotation Xrotation Yrotation
                JOINT LeftForeArmRoll
                {
                  OFFSET 0 7.87516 0
                  CHANNELS 3 Zrotation Xrotation Yrotation
                  JOINT LeftHand
                  {
                    OFFSET 0 15.8037 0
                    CHANNELS 3 Zrotation Xrotation Yrotation
                    End Site
                    {
                      OFFSET 0 0 0
                    }
                  }
                }
              }
            }
          }
        }
      }
    }
  }
  JOINT RightUpLeg
  {
    OFFSET -7.06048 -1.2947 -1.0861
    CHANNELS 3 Zrotation Xrotation Yrotation
    JOINT RightUpLegRoll
    {
      OFFSET 0 18.5308 0
      CHANNELS 3 Zrotation Xrotation Yrotation
      JOINT RightLeg
      {
        OFFSET 0 -22.9476 0
        CHANNELS 3 Zrotation Xrotation Yrotation
        JOINT RightLegRoll
        {
          OFFSET 0 23.0226 0
          CHANNELS 3 Zrotation Xrotation Yrotation
          JOINT RightFoot
          {
            OFFSET 0 19.1625 0
            CHANNELS 3 Zrotation Xrotation Yrotation
            JOINT RightToeBase
            {
              OFFSET 0 16.0188 0
              CHANNELS 3 Zrotation Xrotation Yrotation
              End Site
              {
                OFFSET 0.00678979 7.75782 -0.894206
              }
            }
          }
        }
      }
    }
  }
  JOINT LeftUpLeg
  {
    OFFSET 7.06048 -1.2947 -1.0861
    CHANNELS 3 Zrotation Xrotation Yrotation
    JOINT LeftUpLegRoll
    {
      OFFSET 0 18.5309 0
      CHANNELS 3 Zrotation Xrotation Yrotation
      JOINT LeftLeg
      {
        OFFSET 0 22.9475 0
        CHANNELS 3 Zrotation Xrotation Yrotation
        JOINT LeftLegRoll
        {
          OFFSET 0 23.2355 0
          CHANNELS 3 Zrotation Xrotation Yrotation
          JOINT LeftFoot
          {
            OFFSET 0 18.9496 0
            CHANNELS 3 Zrotation Xrotation Yrotation
            JOINT LeftToeBase
            {
              OFFSET 0 16.0188 0
              CHANNELS 3 Zrotation Xrotation Yrotation
              End Site
              {
                OFFSET -0.0304289 7.75782 -0.894206
              }
            }
          }
        }
      }
    }
  }
}
MOTION
Frames: 9
Frame Time: 0.00208333
63.9572 96.5546 -4.1471 0.0174753 -4.47669 4.65711 0.334101 -0.422052 -0.310323 0.64446 3.15682 -0.659985 0.653183 4.80179 -0.6713 -11.6205 5.86972 1.55435 9.5963 13.1468 -1.00592 70.6253 -3.83756 -3.25476 96.6689 19.8846 -19.9116 2.08996e-005 -3.32151e-006 4.94001e-006 24.738 43.4546 -11.514 -4.92244e-006 -5.82978e-006 -2.99999 8.02911 -4.95117 0.697514 -64.2878 -3.53618 2.62945 -110.587 17.5055 15.9694 -1.78906e-014 4.77083e-015 -4.77083e-015 -18.7694 40.4625 8.91792 2.81191e-006 -2.63022e-006 3.0126 -8.02888 -4.95084 -0.697432 178.955 -1.41098 1.80699 180 7.01531e-015 178.854 178.785 6.99258 179.556 -7.69449e-007 -5.43515e-006 -0.00997523 -17.3781 66.2475 18.1843 8.13241 25.2329 -3.486 -176.872 0.0925824 -0.366197 4.5067e-006 -1.99009e-005 -1.12672 -1.83337 -10.7707 0.120998 5.0623e-006 -4.9706e-006 -0.210905 19.8608 69.4358 -20.7981 -8.12211 25.2335 3.48161 
63.9608 96.5523 -4.14524 0.0216523 -4.4488 4.66658 0.334757 -0.418983 -0.310336 0.647371 3.16295 -0.660149 0.656104 4.80792 -0.671523 -11.6169 5.84829 1.5545 9.5967 13.0984 -0.998604 70.6151 -3.84372 -3.25704 96.6648 19.7705 -19.8453 2.08996e-005 -3.32151e-006 4.94001e-006 24.7215 43.3762 -11.48 -4.92244e-006 -5.82978e-006 -2.99999 8.02911 -4.95117 0.697514 -64.3122 -3.53387 2.63009 -110.564 17.4794 15.7682 5.1684e-015 -4.77083e-015 1.59028e-015 -18.6539 40.1803 8.8021 2.81191e-006 -2.63022e-006 3.0126 -8.02888 -4.95084 -0.697432 178.962 -1.38189 1.78445 180 7.01531e-015 178.854 178.81 6.99775 179.554 -7.69449e-007 -5.43515e-006 -0.011282 -17.3657 66.2301 18.1707 8.13241 25.2329 -3.486 -176.887 0.142995 -0.350503 4.5067e-006 -1.99009e-005 -1.12672 -1.82525 -10.8088 0.122509 5.0623e-006 -4.9706e-006 -0.210841 19.8513 69.4259 -20.7879 -8.12211 25.2335 3.48161 
63.9679 96.5545 -4.14103 0.0257461 -4.42107 4.67633 0.33539 -0.415918 -0.310348 0.650286 3.16907 -0.660263 0.659027 4.81404 -0.671696 -11.6127 5.82673 1.55451 9.59649 13.0498 -0.991249 70.6049 -3.85001 -3.25938 96.6598 19.6549 -19.781 2.08996e-005 -3.32151e-006 4.94001e-006 24.7065 43.2999 -11.4471 -4.92244e-006 -5.82978e-006 -2.99999 8.02911 -4.95117 0.697514 -64.3365 -3.5313 2.63057 -110.542 17.4513 15.5685 -1.78906e-015 0 -0 -18.5424 39.9014 8.68881 2.81191e-006 -2.63022e-006 3.0126 -8.02888 -4.95084 -0.697432 178.97 -1.35489 1.76218 180 7.01531e-015 178.854 178.834 6.99936 179.551 -7.69449e-007 -5.43515e-006 -0.0126701 -17.3526 66.2116 18.1564 8.13241 25.2329 -3.486 -176.902 0.192743 -0.335102 4.5067e-006 -1.99009e-005 -1.12672 -1.81734 -10.846 0.123976 5.0623e-006 -4.9706e-006 -0.210746 19.8417 69.4158 -20.7776 -8.12211 25.2335 3.48161 
63.9637 96.549 -4.14464 0.0297784 -4.39347 4.68627 0.336006 -0.412856 -0.31036 0.653203 3.17518 -0.660343 0.661952 4.82015 -0.671836 -11.608 5.80509 1.55443 9.59584 13.0009 -0.983869 70.5946 -3.85638 -3.26177 96.6544 19.5381 -19.7181 2.08996e-005 -3.32151e-006 4.94001e-006 24.6926 43.2249 -11.4152 -4.92244e-006 -5.82978e-006 -2.99999 8.02911 -4.95117 0.697514 -64.3605 -3.52855 2.63095 -110.52 17.4216 15.3697 3.97569e-016 0 -1.59028e-015 -18.434 39.6248 8.5776 2.81191e-006 -2.63022e-006 3.0126 -8.02888 -4.95084 -0.697432 178.977 -1.32937 1.74011 180 7.01531e-015 178.854 178.859 6.99852 179.549 -7.69449e-007 -5.43515e-006 -0.0141151 -17.3391 66.1925 18.1416 8.13241 25.2329 -3.486 -176.916 0.242025 -0.319906 4.5067e-006 -1.99009e-005 -1.12672 -1.80957 -10.8825 0.125413 5.0623e-006 -4.9706e-006 -0.210629 19.832 69.4057 -20.7672 -8.12211 25.2335 3.48161 
63.9665 96.5479 -4.14033 0.0337716 -4.36594 4.69633 0.336614 -0.409795 -0.310372 0.656122 3.18129 -0.660403 0.664878 4.82626 -0.671955 -11.603 5.78339 1.55429 9.59496 12.9519 -0.976476 70.5843 -3.86281 -3.26418 96.6487 19.4207 -19.6562 2.08996e-005 -3.32151e-006 4.94001e-006 24.6793 43.1508 -11.3837 -4.92244e-006 -5.82978e-006 -2.99999 8.02911 -4.95117 0.697514 -64.3844 -3.5257 2.63125 -110.498 17.3909 15.1716 5.96354e-016 1.59028e-015 1.59028e-015 -18.3279 39.3495 8.46801 2.81191e-006 -2.63022e-006 3.0126 -8.02888 -4.95084 -0.697432 178.985 -1.30468 1.71816 180 7.0153e-015 178.854 178.883 6.99626 179.547 -7.69449e-007 -5.43515e-006 -0.0155926 -17.3252 66.1729 18.1265 8.13241 25.2329 -3.486 -176.931 0.291041 -0.304827 4.5067e-006 -1.99009e-005 -1.12672 -1.80189 -10.9187 0.126833 5.0623e-006 -4.9706e-006 -0.2105 19.8222 69.3956 -20.7568 -8.12211 25.2335 3.48161 
63.973 96.5463 -4.13407 0.0377476 -4.33842 4.7064 0.337219 -0.406734 -0.310384 0.659041 3.1874 -0.660458 0.667804 4.83237 -0.67207 -11.598 5.76167 1.55413 9.59403 12.9028 -0.969082 70.5741 -3.86925 -3.26659 96.6433 19.303 -19.5946 2.08996e-005 -3.32151e-006 4.94001e-006 24.6662 43.0768 -11.3525 -4.92244e-006 -5.82978e-006 -2.99999 8.02911 -4.95117 0.697514 -64.4083 -3.52282 2.63154 -110.476 17.3598 14.9737 -3.29983e-014 6.36111e-015 -6.36111e-015 -18.2235 39.0744 8.35961 2.81191e-006 -2.63022e-006 3.0126 -8.02888 -4.95084 -0.697432 178.992 -1.28021 1.69623 180 7.0153e-015 178.854 178.907 6.99363 179.544 -7.69449e-007 -5.43515e-006 -0.0170782 -17.3114 66.1533 18.1113 8.13241 25.2329 -3.486 -176.945 0.33999 -0.289778 4.5067e-006 -1.99009e-005 -1.12672 -1.79423 -10.9548 0.128249 5.0623e-006 -4.9706e-006 -0.210368 19.8124 69.3854 -20.7464 -8.12211 25.2335 3.48161 
63.9685 96.5431 -4.13397 0.0417288 -4.31087 4.71643 0.337828 -0.403672 -0.310396 0.661959 3.19352 -0.660524 0.67073 4.83848 -0.672195 -11.5931 5.73999 1.55401 9.59324 12.8538 -0.9617 70.5638 -3.87567 -3.269 96.6383 19.1855 -19.5328 2.08996e-005 -3.32151e-006 4.94001e-006 24.653 43.0024 -11.3211 -4.92244e-006 -5.82978e-006 -2.99999 8.02911 -4.95117 0.697514 -64.4322 -3.52 2.63186 -110.455 17.3288 14.7755 3.97569e-016 -1.59028e-015 7.95139e-016 -18.1199 38.7983 8.25198 2.81191e-006 -2.63022e-006 3.0126 -8.02888 -4.95084 -0.697432 179 -1.25531 1.67425 180 7.0153e-015 178.854 178.932 6.99174 179.542 -7.69449e-007 -5.43515e-006 -0.0185475 -17.2977 66.1339 18.0963 8.13241 25.2329 -3.486 -176.96 0.389073 -0.274671 4.5067e-006 -1.99009e-005 -1.12672 -1.78652 -10.9911 0.129674 5.0623e-006 -4.9706e-006 -0.210241 19.8027 69.3752 -20.736 -8.12211 25.2335 3.48161 
63.979 96.5351 -4.16204 0.0457376 -4.28324 4.72632 0.33845 -0.400609 -0.310409 0.664875 3.19963 -0.660613 0.673655 4.8446 -0.672344 -11.5885 5.71837 1.55395 9.59277 12.805 -0.954343 70.5536 -3.88202 -3.27137 96.6341 19.0686 -19.4703 2.08996e-005 -3.32151e-006 4.94001e-006 24.6393 42.927 -11.2893 -4.92244e-006 -5.82978e-006 -2.99999 8.02911 -4.95117 0.697514 -64.4563 -3.5173 2.63227 -110.434 17.2984 14.5768 6.55989e-015 -3.18055e-015 7.95139e-016 -18.0165 38.5203 8.14472 2.81191e-006 -2.63022e-006 3.0126 -8.02888 -4.95084 -0.697432 179.007 -1.22937 1.65213 180 7.0153e-015 178.853 178.956 6.9916 179.54 -7.69449e-007 -5.43515e-006 -0.0199763 -17.2844 66.1149 18.0818 8.13241 25.2329 -3.486 -176.975 0.438488 -0.259417 4.5067e-006 -1.99009e-005 -1.12672 -1.7787 -11.0278 0.131121 5.0623e-006 -4.9706e-006 -0.210131 19.793 69.3651 -20.7257 -8.12211 25.2335 3.48161 
63.9847 96.5388 -4.15403 0.0497966 -4.25547 4.73599 0.339089 -0.397543 -0.310421 0.667789 3.20575 -0.660742 0.676577 4.85072 -0.672532 -11.5845 5.69685 1.554 9.59282 12.7564 -0.947022 70.5433 -3.88826 -3.27369 96.6312 18.9528 -19.4065 2.08996e-005 -3.32151e-006 4.94001e-006 24.6246 42.85 -11.2568 -4.92244e-006 -5.82978e-006 -2.99999 8.02911 -4.95117 0.697514 -64.4806 -3.51481 2.6328 -110.413 17.2692 14.3771 -6.16232e-015 3.18055e-015 7.95139e-016 -17.9125 38.2393 8.03746 2.81191e-006 -2.63022e-006 3.0126 -8.02888 -4.95084 -0.697432 179.015 -1.20174 1.62979 180 7.0153e-015 178.853 178.981 6.99428 179.537 -7.69449e-007 -5.43515e-006 -0.02134 -17.2716 66.0968 18.0678 8.13241 25.2329 -3.486 -176.99 0.488436 -0.243928 4.5067e-006 -1.99009e-005 -1.12672 -1.77071 -11.0653 0.132604 5.0623e-006 -4.9706e-006 -0.210045 19.7835 69.3551 -20.7155 -8.12211 25.2335 3.48161 
